<?xml version="1.0" encoding="UTF-8"?>
<svg xmlns="http://www.w3.org/2000/svg" xmlns:xlink="http://www.w3.org/1999/xlink" width="810pt" height="809.999993pt" viewBox="0 0 810 809.999993" version="1.2">
<defs>
<clipPath id="clip1">
  <path d="M 251.101562 81 L 558.601562 81 L 558.601562 729 L 251.101562 729 Z M 251.101562 81 "/>
</clipPath>
</defs>
<g id="surface1">
<path style=" stroke:none;fill-rule:nonzero;fill:rgb(38.038635%,42.749023%,41.178894%);fill-opacity:1;" d="M 405 18.835938 C 398.679688 18.835938 392.363281 18.992188 386.050781 19.300781 C 379.738281 19.613281 373.4375 20.078125 367.148438 20.695312 C 360.859375 21.316406 354.589844 22.089844 348.339844 23.015625 C 342.085938 23.945312 335.863281 25.023438 329.664062 26.257812 C 323.464844 27.488281 317.300781 28.875 311.171875 30.410156 C 305.039062 31.945312 298.949219 33.628906 292.902344 35.464844 C 286.855469 37.300781 280.855469 39.28125 274.90625 41.410156 C 268.957031 43.539062 263.0625 45.8125 257.222656 48.230469 C 251.382812 50.652344 245.605469 53.210938 239.894531 55.914062 C 234.179688 58.613281 228.539062 61.457031 222.964844 64.433594 C 217.390625 67.414062 211.894531 70.527344 206.472656 73.777344 C 201.050781 77.027344 195.714844 80.40625 190.460938 83.917969 C 185.203125 87.429688 180.039062 91.066406 174.964844 94.832031 C 169.886719 98.597656 164.90625 102.484375 160.019531 106.492188 C 155.136719 110.5 150.351562 114.628906 145.667969 118.871094 C 140.984375 123.117188 136.410156 127.472656 131.941406 131.941406 C 127.472656 136.410156 123.117188 140.984375 118.871094 145.667969 C 114.628906 150.351562 110.5 155.136719 106.492188 160.019531 C 102.484375 164.90625 98.597656 169.886719 94.832031 174.964844 C 91.066406 180.039062 87.429688 185.203125 83.917969 190.460938 C 80.40625 195.714844 77.027344 201.050781 73.777344 206.472656 C 70.527344 211.894531 67.414062 217.390625 64.433594 222.964844 C 61.457031 228.539062 58.613281 234.179688 55.914062 239.894531 C 53.210938 245.605469 50.652344 251.382812 48.230469 257.222656 C 45.8125 263.0625 43.539062 268.957031 41.410156 274.90625 C 39.28125 280.855469 37.300781 286.855469 35.464844 292.902344 C 33.628906 298.949219 31.945312 305.039062 30.410156 311.171875 C 28.875 317.300781 27.488281 323.464844 26.257812 329.664062 C 25.023438 335.863281 23.945312 342.085938 23.015625 348.339844 C 22.089844 354.589844 21.316406 360.859375 20.695312 367.148438 C 20.078125 373.4375 19.613281 379.738281 19.300781 386.050781 C 18.992188 392.363281 18.835938 398.679688 18.835938 405 C 18.835938 411.320312 18.992188 417.636719 19.300781 423.949219 C 19.613281 430.261719 20.078125 436.5625 20.695312 442.851562 C 21.316406 449.140625 22.089844 455.410156 23.015625 461.660156 C 23.945312 467.914062 25.023438 474.136719 26.257812 480.335938 C 27.488281 486.535156 28.875 492.699219 30.410156 498.828125 C 31.945312 504.960938 33.628906 511.050781 35.464844 517.097656 C 37.300781 523.144531 39.28125 529.144531 41.410156 535.09375 C 43.539062 541.042969 45.8125 546.9375 48.230469 552.777344 C 50.652344 558.617188 53.210938 564.394531 55.914062 570.105469 C 58.613281 575.820312 61.457031 581.460938 64.433594 587.035156 C 67.414062 592.609375 70.527344 598.105469 73.777344 603.527344 C 77.027344 608.949219 80.40625 614.285156 83.917969 619.539062 C 87.429688 624.796875 91.066406 629.960938 94.832031 635.035156 C 98.597656 640.113281 102.484375 645.09375 106.492188 649.980469 C 110.5 654.863281 114.628906 659.648438 118.871094 664.332031 C 123.117188 669.011719 127.472656 673.589844 131.941406 678.058594 C 136.410156 682.527344 140.984375 686.882812 145.667969 691.128906 C 150.351562 695.371094 155.136719 699.5 160.019531 703.507812 C 164.90625 707.515625 169.886719 711.402344 174.964844 715.167969 C 180.039062 718.933594 185.203125 722.570312 190.460938 726.082031 C 195.714844 729.59375 201.050781 732.972656 206.472656 736.222656 C 211.894531 739.472656 217.390625 742.585938 222.964844 745.566406 C 228.539062 748.542969 234.179688 751.386719 239.894531 754.085938 C 245.605469 756.789062 251.382812 759.347656 257.222656 761.769531 C 263.0625 764.1875 268.957031 766.460938 274.90625 768.589844 C 280.855469 770.71875 286.855469 772.699219 292.902344 774.535156 C 298.949219 776.367188 305.039062 778.054688 311.171875 779.589844 C 317.300781 781.125 323.464844 782.507812 329.664062 783.742188 C 335.863281 784.976562 342.085938 786.054688 348.339844 786.984375 C 354.589844 787.910156 360.859375 788.683594 367.148438 789.304688 C 373.4375 789.921875 379.738281 790.386719 386.050781 790.699219 C 392.363281 791.007812 398.679688 791.164062 405 791.164062 C 411.320312 791.164062 417.636719 791.007812 423.949219 790.699219 C 430.261719 790.386719 436.5625 789.921875 442.851562 789.304688 C 449.140625 788.683594 455.410156 787.910156 461.660156 786.984375 C 467.914062 786.054688 474.136719 784.976562 480.335938 783.742188 C 486.535156 782.507812 492.699219 781.125 498.828125 779.589844 C 504.960938 778.054688 511.050781 776.367188 517.097656 774.535156 C 523.144531 772.699219 529.144531 770.71875 535.09375 768.589844 C 541.042969 766.460938 546.9375 764.1875 552.777344 761.769531 C 558.617188 759.347656 564.394531 756.789062 570.105469 754.085938 C 575.820312 751.382812 581.460938 748.542969 587.035156 745.566406 C 592.609375 742.585938 598.105469 739.472656 603.527344 736.222656 C 608.949219 732.972656 614.285156 729.59375 619.539062 726.082031 C 624.796875 722.570312 629.960938 718.933594 635.035156 715.167969 C 640.113281 711.402344 645.09375 707.515625 649.980469 703.507812 C 654.863281 699.5 659.648438 695.371094 664.332031 691.128906 C 669.011719 686.882812 673.589844 682.527344 678.058594 678.058594 C 682.527344 673.589844 686.882812 669.011719 691.128906 664.332031 C 695.371094 659.648438 699.5 654.863281 703.507812 649.980469 C 707.515625 645.09375 711.402344 640.113281 715.167969 635.035156 C 718.933594 629.960938 722.570312 624.796875 726.082031 619.539062 C 729.59375 614.285156 732.972656 608.949219 736.222656 603.527344 C 739.472656 598.105469 742.585938 592.609375 745.566406 587.035156 C 748.542969 581.460938 751.386719 575.820312 754.085938 570.105469 C 756.789062 564.394531 759.347656 558.617188 761.769531 552.777344 C 764.1875 546.9375 766.460938 541.042969 768.589844 535.09375 C 770.71875 529.144531 772.699219 523.144531 774.535156 517.097656 C 776.367188 511.050781 778.054688 504.960938 779.589844 498.828125 C 781.125 492.699219 782.507812 486.535156 783.742188 480.335938 C 784.976562 474.136719 786.054688 467.914062 786.984375 461.660156 C 787.910156 455.410156 788.683594 449.140625 789.304688 442.851562 C 789.921875 436.5625 790.386719 430.261719 790.699219 423.949219 C 791.007812 417.636719 791.164062 411.320312 791.164062 405 C 791.164062 398.679688 791.007812 392.363281 790.699219 386.050781 C 790.386719 379.738281 789.921875 373.4375 789.304688 367.148438 C 788.683594 360.859375 787.910156 354.589844 786.984375 348.339844 C 786.054688 342.085938 784.976562 335.863281 783.742188 329.664062 C 782.507812 323.464844 781.125 317.300781 779.589844 311.171875 C 778.054688 305.039062 776.367188 298.949219 774.535156 292.902344 C 772.699219 286.855469 770.71875 280.855469 768.589844 274.90625 C 766.460938 268.957031 764.1875 263.0625 761.769531 257.222656 C 759.347656 251.382812 756.789062 245.605469 754.085938 239.894531 C 751.382812 234.179688 748.542969 228.539062 745.566406 222.964844 C 742.585938 217.390625 739.472656 211.894531 736.222656 206.472656 C 732.972656 201.050781 729.59375 195.714844 726.082031 190.460938 C 722.570312 185.203125 718.933594 180.039062 715.167969 174.964844 C 711.402344 169.886719 707.515625 164.90625 703.507812 160.019531 C 699.5 155.136719 695.371094 150.351562 691.128906 145.667969 C 686.882812 140.984375 682.527344 136.410156 678.058594 131.941406 C 673.589844 127.472656 669.011719 123.117188 664.332031 118.871094 C 659.648438 114.628906 654.863281 110.5 649.980469 106.492188 C 645.09375 102.484375 640.113281 98.597656 635.035156 94.832031 C 629.960938 91.066406 624.796875 87.429688 619.539062 83.917969 C 614.285156 80.40625 608.949219 77.027344 603.527344 73.777344 C 598.105469 70.527344 592.609375 67.414062 587.035156 64.433594 C 581.460938 61.457031 575.820312 58.613281 570.105469 55.914062 C 564.394531 53.210938 558.617188 50.652344 552.777344 48.230469 C 546.9375 45.8125 541.042969 43.539062 535.09375 41.410156 C 529.144531 39.28125 523.144531 37.300781 517.097656 35.464844 C 511.050781 33.628906 504.960938 31.945312 498.828125 30.410156 C 492.699219 28.875 486.535156 27.488281 480.335938 26.257812 C 474.136719 25.023438 467.914062 23.945312 461.660156 23.015625 C 455.410156 22.089844 449.140625 21.316406 442.851562 20.695312 C 436.5625 20.078125 430.261719 19.613281 423.949219 19.300781 C 417.636719 18.992188 411.320312 18.835938 405 18.835938 Z M 405 18.835938 "/>
<g clip-path="url(#clip1)" clip-rule="nonzero">
<path style=" stroke:none;fill-rule:nonzero;fill:rgb(99.609375%,92.939758%,66.668701%);fill-opacity:1;" d="M 396.296875 372.007812 L 558.375 80.988281 L 251.421875 437.996094 L 413.507812 437.996094 L 251.421875 729.015625 L 558.375 372.007812 L 396.296875 372.007812 "/>
</g>
</g>
</svg>
